<svg xmlns="http://www.w3.org/2000/svg" viewBox="0 0 24 24" class="css-jxbgrg eanm77i0" aria-hidden="true" data-comp="Icon StyledComponent "><path d="M16.122 4a.46.46 0 0 1 .462.458v2.446h3.212a.46.46 0 0 1 .371.186l3.744 5.069c.058.078.09.173.09.271L24 18l-3.036.001a3.5 3.5 0 0 1-6.92.053H8.956A3.5 3.5 0 0 1 2.036 18L1 18v-6H.5a.5.5 0 1 1 0-1H1v-1H.5a.5.5 0 1 1 0-1H1V8H.5a.5.5 0 1 1 0-1H1v-.272A2.74 2.74 0 0 1 3.747 4h12.375ZM17.5 15a2.5 2.5 0 1 0 0 5 2.5 2.5 0 0 0 0-5Zm-12 0a2.5 2.5 0 1 0 0 5 2.5 2.5 0 0 0 0-5Zm12 1a1.5 1.5 0 1 1 0 3 1.5 1.5 0 0 1 0-3Zm-12 0a1.5 1.5 0 1 1 0 3 1.5 1.5 0 0 1 0-3Zm12 1a.5.5 0 1 0 0 1 .5.5 0 0 0 0-1Zm-12 0a.5.5 0 1 0 0 1 .5.5 0 0 0 0-1Zm13.174-8h-2.233c-.219 0-.397.197-.397.44v3.12c0 .243.178.44.397.44h4.207a.393.393 0 0 0 .352-.238.483.483 0 0 0-.028-.455l-1.973-3.12A.389.389 0 0 0 18.674 9ZM3.5 11H1.926v1H3.5a.5.5 0 1 0 0-1Zm1-2H1.922v1H4.5a.5.5 0 1 0 0-1Zm5.425-2h-1.39A.537.537 0 0 0 8 7.537c.002.294.24.532.535.533h1.39a.536.536 0 0 0 0-1.07ZM5.5 7H1.922v1H5.5a.5.5 0 1 0 0-1Z"></path></svg>