<svg xmlns="http://www.w3.org/2000/svg" xmlns:xlink= "http://www.w3.org/1999/xlink" viewBox="0 0 24 24" aria-hidden="true" width="20px" fill="gray" class="css-h69vmv eanm77i0" data-comp="Icon StyledComponent "><path d="M16 2c.82 0 1.464.36 1.947.902.471.528.791 1.23 1.013 1.951.444 1.445.54 3.128.54 4.147H22a1 1 0 0 1 1 1v11a1 1 0 0 1-1 1H10a1 1 0 0 1-1-1V10a1 1 0 0 1 1-1h2.5c0-1.019.096-2.702.54-4.147.222-.722.542-1.423 1.013-1.951C14.536 2.36 15.18 2 16 2Zm6 17H10v2h12v-2Zm0-3H10v2h12v-2Zm0-3H10v2h12v-2Zm0-3H10v2h12v-2Zm-6-7c-.49 0-.876.203-1.2.567-.338.378-.604.927-.804 1.58C13.595 6.452 13.5 8.019 13.5 9h5c0-.981-.095-2.548-.495-3.853-.201-.653-.467-1.202-.804-1.58C16.876 3.203 16.49 3 16 3ZM.5 11h7a.5.5 0 0 1 0 1h-7a.5.5 0 0 1 0-1Zm2 3h5a.5.5 0 1 1 0 1h-5a.5.5 0 1 1 0-1Zm2 3h3a.5.5 0 1 1 0 1h-3a.5.5 0 1 1 0-1Z"></path></svg>




