<svg width="20px" xmlns="http://www.w3.org/2000/svg" xmlns:xlink= "http://www.w3.org/1999/xlink" viewBox="0 0 24 24" class="css-1il18wa eanm77i0" aria-hidden="true" data-comp="Icon StyledComponent "><g><circle fill="#fff" cx="12" cy="18.667" r="1.333"></circle><path d="M12 5.333c-.8 0-1.333.534-1.333 1.334v8c0 .8.533 1.333 1.333 1.333.8 0 1.333-.533 1.333-1.333v-8c0-.8-.533-1.334-1.333-1.334z" fill="#fff"></path><path d="M12 0C5.333 0 0 5.333 0 12s5.333 12 12 12 12-5.333 12-12S18.667 0 12 0zm0 20c-.8 0-1.333-.533-1.333-1.333 0-.8.533-1.334 1.333-1.334.8 0 1.333.534 1.333 1.334S12.8 20 12 20zm1.333-5.333c0 .8-.533 1.333-1.333 1.333-.8 0-1.333-.533-1.333-1.333v-8c0-.8.533-1.334 1.333-1.334.8 0 1.333.534 1.333 1.334v8z" fill="#ce102c"></path></g></svg>